<svg xmlns="http://www.w3.org/2000/svg" viewBox="0 0 860 400" width="860" height="400" role="img" aria-label="Qiita 活動記録">
<defs>
  <radialGradient id="tray" cx="0.5" cy="0.28" r="0.9">
    <stop offset="0" stop-color="#0E1511"/><stop offset="1" stop-color="#0A0F0B"/>
  </radialGradient>
  <linearGradient id="heroGlass" x1="0" y1="0" x2="1" y2="1">
    <stop offset="0" stop-color="#55C500" stop-opacity="0.18"/><stop offset="1" stop-color="#55C500" stop-opacity="0.05"/>
  </linearGradient>
  <linearGradient id="tileGlass" x1="0" y1="0" x2="1" y2="1">
    <stop offset="0" stop-color="#55C500" stop-opacity="0.11"/><stop offset="1" stop-color="#55C500" stop-opacity="0.04"/>
  </linearGradient>
  <linearGradient id="rim" x1="0" y1="0" x2="1" y2="1">
    <stop offset="0" stop-color="#D8FFC2" stop-opacity="0.5"/><stop offset="0.5" stop-color="#55C500" stop-opacity="0.18"/><stop offset="1" stop-color="#0C2400" stop-opacity="0.10"/>
  </linearGradient>
  <linearGradient id="sheen" x1="0" y1="0" x2="0" y2="1">
    <stop offset="0" stop-color="#FFFFFF" stop-opacity="0.10"/><stop offset="1" stop-color="#FFFFFF" stop-opacity="0"/>
  </linearGradient>
  <linearGradient id="heroNum" x1="0" y1="0" x2="0" y2="1">
    <stop offset="0" stop-color="#B9F58C"/><stop offset="1" stop-color="#7FE04A"/>
  </linearGradient>
  <linearGradient id="gaugeVal" x1="0" y1="0" x2="1" y2="0">
    <stop offset="0" stop-color="#55C500"/><stop offset="1" stop-color="#9AF05A"/>
  </linearGradient>
  <linearGradient id="barg" x1="0" y1="0" x2="1" y2="0">
    <stop offset="0" stop-color="#55C500"/><stop offset="1" stop-color="#7FE04A"/>
  </linearGradient>
  <radialGradient id="orb" cx="0.5" cy="0.5" r="0.5">
    <stop offset="0" stop-color="#55C500" stop-opacity="0.30"/><stop offset="1" stop-color="#55C500" stop-opacity="0"/>
  </radialGradient>
  <linearGradient id="qglint" x1="0" y1="0" x2="1" y2="0">
    <stop offset="0" stop-color="#FFFFFF" stop-opacity="0"/>
    <stop offset="0.5" stop-color="#FFFFFF" stop-opacity="0.10"/>
    <stop offset="1" stop-color="#FFFFFF" stop-opacity="0"/>
  </linearGradient>
  <filter id="drop" x="-20%" y="-20%" width="140%" height="150%" color-interpolation-filters="sRGB">
    <feDropShadow dx="0" dy="8" stdDeviation="12" flood-color="#0C2400" flood-opacity="0.42"/>
  </filter>
  <filter id="glow" x="-60%" y="-60%" width="220%" height="220%" color-interpolation-filters="sRGB">
    <feGaussianBlur stdDeviation="6"><animate attributeName="stdDeviation" values="5;8;5" dur="6s" repeatCount="indefinite"/></feGaussianBlur>
  </filter>
  <filter id="soft" x="-60%" y="-60%" width="220%" height="220%" color-interpolation-filters="sRGB">
    <feGaussianBlur stdDeviation="14"/>
  </filter>
  <filter id="grain" x="0" y="0" width="100%" height="100%" color-interpolation-filters="sRGB">
    <feTurbulence type="fractalNoise" baseFrequency="0.85" numOctaves="2" stitchTiles="stitch" seed="7" result="n"/>
    <feColorMatrix in="n" type="matrix" values="0 0 0 0 0.35  0 0 0 0 0.77  0 0 0 0 0.10  0 0 0 0.05 0"/>
  </filter>
  <clipPath id="round"><rect x="2" y="2" width="856" height="396" rx="22"/></clipPath>
  <linearGradient id="qbleaf" x1="0" y1="0" x2="0.2" y2="1"><stop offset="0" stop-color="#9CEC63"/><stop offset="0.55" stop-color="#5FA83A"/><stop offset="1" stop-color="#356E1F"/></linearGradient><radialGradient id="qbfg" cx="0.5" cy="0.5" r="0.5"><stop offset="0" stop-color="#55C500" stop-opacity="0.22"/><stop offset="1" stop-color="#55C500" stop-opacity="0"/></radialGradient><radialGradient id="qbfg2" cx="0.5" cy="0.5" r="0.5"><stop offset="0" stop-color="#8FE04D" stop-opacity="0.16"/><stop offset="1" stop-color="#8FE04D" stop-opacity="0"/></radialGradient><filter id="qbfs" x="-70%" y="-70%" width="240%" height="240%" color-interpolation-filters="sRGB"><feGaussianBlur stdDeviation="26"/></filter><filter id="qbdapple" x="0" y="0" width="100%" height="100%" color-interpolation-filters="sRGB"><feTurbulence type="fractalNoise" baseFrequency="0.012 0.02" numOctaves="2" seed="11" stitchTiles="stitch" result="n"/><feColorMatrix in="n" type="matrix" values="0 0 0 0 0.33  0 0 0 0 0.66  0 0 0 0 0.15  0 0 0 0.5 -0.34"/></filter>
</defs>

<g clip-path="url(#round)">
  <rect x="2" y="2" width="856" height="396" fill="url(#tray)"/>
  <!-- light-leak orbs behind hero -->
  <circle cx="150" cy="170" r="140" fill="url(#orb)" filter="url(#soft)"/>
  <circle cx="300" cy="300" r="110" fill="url(#orb)" filter="url(#soft)" opacity="0.7"/>
  <!-- ボタニカル: ツタ・葉・巻きひげ・胞子（ガラス越しに透ける） -->
  <circle cx="70" cy="360" r="150" fill="url(#qbfg)" filter="url(#qbfs)"/><circle cx="800" cy="30" r="140" fill="url(#qbfg2)" filter="url(#qbfs)"/><rect x="2" y="2" width="856" height="396" filter="url(#qbdapple)" opacity="0.5"/><path d="M-24.0 30.0 C 150.0 4.0 330.0 54.0 286.0 170.0" fill="none" stroke="#4E9E2E" stroke-opacity="0.17" stroke-width="2" stroke-linecap="round" pathLength="100" stroke-dasharray="100" stroke-dashoffset="0"><animate attributeName="stroke-dashoffset" values="100;0" dur="1.7s" begin="0.2s" fill="freeze" calcMode="spline" keySplines="0.22 1 0.36 1" keyTimes="0;1"/></path><g transform="translate(79.3,23.4) rotate(61.4)"><g opacity="0.19"><path d="M0 0 Q 7.1 -7.5 17.0 0 Q 7.1 7.5 0 0 Z" fill="url(#qbleaf)"/><path d="M1 0 L 15.6 0" stroke="#2E5A18" stroke-opacity="0.55" stroke-width="0.6"/><animateTransform attributeName="transform" type="rotate" values="-2.6;2.6;-2.6" dur="4.6s" begin="0.0s" repeatCount="indefinite" calcMode="spline" keySplines="0.4 0 0.6 1;0.4 0 0.6 1" keyTimes="0;0.5;1"/></g></g><g transform="translate(79.3,23.4) rotate(-35.8)"><g opacity="0.17"><path d="M0 0 Q 4.4 -4.6 10.5 0 Q 4.4 4.6 0 0 Z" fill="url(#qbleaf)"/><path d="M1 0 L 9.7 0" stroke="#2E5A18" stroke-opacity="0.55" stroke-width="0.6"/><animateTransform attributeName="transform" type="rotate" values="-2.6;2.6;-2.6" dur="6.199999999999999s" begin="0.0s" repeatCount="indefinite" calcMode="spline" keySplines="0.4 0 0.6 1;0.4 0 0.6 1" keyTimes="0;0.5;1"/></g></g><g transform="translate(164.3,32.7) rotate(-48.2)"><g opacity="0.19"><path d="M0 0 Q 6.3 -6.6 15.0 0 Q 6.3 6.6 0 0 Z" fill="url(#qbleaf)"/><path d="M1 0 L 13.8 0" stroke="#2E5A18" stroke-opacity="0.55" stroke-width="0.6"/><animateTransform attributeName="transform" type="rotate" values="-2.6;2.6;-2.6" dur="5.3999999999999995s" begin="0.55s" repeatCount="indefinite" calcMode="spline" keySplines="0.4 0 0.6 1;0.4 0 0.6 1" keyTimes="0;0.5;1"/></g></g><g transform="translate(164.3,32.7) rotate(49.0)"><g opacity="0.17"><path d="M0 0 Q 3.9 -4.1 9.3 0 Q 3.9 4.1 0 0 Z" fill="url(#qbleaf)"/><path d="M1 0 L 8.6 0" stroke="#2E5A18" stroke-opacity="0.55" stroke-width="0.6"/><animateTransform attributeName="transform" type="rotate" values="-2.6;2.6;-2.6" dur="7.0s" begin="0.55s" repeatCount="indefinite" calcMode="spline" keySplines="0.4 0 0.6 1;0.4 0 0.6 1" keyTimes="0;0.5;1"/></g></g><g transform="translate(233.6,56.1) rotate(87.3)"><g opacity="0.19"><path d="M0 0 Q 5.0 -5.3 12.0 0 Q 5.0 5.3 0 0 Z" fill="url(#qbleaf)"/><path d="M1 0 L 11.0 0" stroke="#2E5A18" stroke-opacity="0.55" stroke-width="0.6"/><animateTransform attributeName="transform" type="rotate" values="-2.6;2.6;-2.6" dur="6.199999999999999s" begin="1.1s" repeatCount="indefinite" calcMode="spline" keySplines="0.4 0 0.6 1;0.4 0 0.6 1" keyTimes="0;0.5;1"/></g></g><g transform="translate(233.6,56.1) rotate(-9.9)"><g opacity="0.17"><path d="M0 0 Q 3.1 -3.3 7.4 0 Q 3.1 3.3 0 0 Z" fill="url(#qbleaf)"/><path d="M1 0 L 6.8 0" stroke="#2E5A18" stroke-opacity="0.55" stroke-width="0.6"/><animateTransform attributeName="transform" type="rotate" values="-2.6;2.6;-2.6" dur="4.6s" begin="1.1s" repeatCount="indefinite" calcMode="spline" keySplines="0.4 0 0.6 1;0.4 0 0.6 1" keyTimes="0;0.5;1"/></g></g><g transform="translate(275.3,88.3) rotate(-9.0)"><g opacity="0.19"><path d="M0 0 Q 4.2 -4.4 10.0 0 Q 4.2 4.4 0 0 Z" fill="url(#qbleaf)"/><path d="M1 0 L 9.2 0" stroke="#2E5A18" stroke-opacity="0.55" stroke-width="0.6"/><animateTransform attributeName="transform" type="rotate" values="-2.6;2.6;-2.6" dur="7.0s" begin="1.6500000000000001s" repeatCount="indefinite" calcMode="spline" keySplines="0.4 0 0.6 1;0.4 0 0.6 1" keyTimes="0;0.5;1"/></g></g><g transform="translate(275.3,88.3) rotate(88.2)"><g opacity="0.17"><path d="M0 0 Q 2.6 -2.7 6.2 0 Q 2.6 2.7 0 0 Z" fill="url(#qbleaf)"/><path d="M1 0 L 5.7 0" stroke="#2E5A18" stroke-opacity="0.55" stroke-width="0.6"/><animateTransform attributeName="transform" type="rotate" values="-2.6;2.6;-2.6" dur="5.3999999999999995s" begin="1.6500000000000001s" repeatCount="indefinite" calcMode="spline" keySplines="0.4 0 0.6 1;0.4 0 0.6 1" keyTimes="0;0.5;1"/></g></g><g transform="translate(292.6,131.1) rotate(146.3)"><g opacity="0.19"><path d="M0 0 Q 3.8 -4.0 9.0 0 Q 3.8 4.0 0 0 Z" fill="url(#qbleaf)"/><path d="M1 0 L 8.3 0" stroke="#2E5A18" stroke-opacity="0.55" stroke-width="0.6"/><animateTransform attributeName="transform" type="rotate" values="-2.6;2.6;-2.6" dur="4.6s" begin="2.2s" repeatCount="indefinite" calcMode="spline" keySplines="0.4 0 0.6 1;0.4 0 0.6 1" keyTimes="0;0.5;1"/></g></g><g transform="translate(292.6,131.1) rotate(49.1)"><g opacity="0.17"><path d="M0 0 Q 2.3 -2.5 5.6 0 Q 2.3 2.5 0 0 Z" fill="url(#qbleaf)"/><path d="M1 0 L 5.1 0" stroke="#2E5A18" stroke-opacity="0.55" stroke-width="0.6"/><animateTransform attributeName="transform" type="rotate" values="-2.6;2.6;-2.6" dur="6.199999999999999s" begin="2.2s" repeatCount="indefinite" calcMode="spline" keySplines="0.4 0 0.6 1;0.4 0 0.6 1" keyTimes="0;0.5;1"/></g></g><g transform="translate(286.0,170.0) rotate(110.8)"><path d="M0 0 c 3.5 -4.9 9.8 -3.5 9.8 2.1 c 0 4.9 -6.3 6.0 -7.4 1.1 c -0.8 -2.8 2.8 -3.5 3.9 -0.8" fill="none" stroke="#4E9E2E" stroke-opacity="0.26" stroke-width="1.3" stroke-linecap="round"/></g><path d="M884.0 16.0 C 756.0 44.0 852.0 150.0 812.0 286.0" fill="none" stroke="#4E9E2E" stroke-opacity="0.17" stroke-width="2" stroke-linecap="round" pathLength="100" stroke-dasharray="100" stroke-dashoffset="0"><animate attributeName="stroke-dashoffset" values="100;0" dur="1.7s" begin="0.6s" fill="freeze" calcMode="spline" keySplines="0.22 1 0.36 1" keyTimes="0;1"/></path><g transform="translate(831.2,41.8) rotate(192.7)"><g opacity="0.19"><path d="M0 0 Q 7.1 -7.5 17.0 0 Q 7.1 7.5 0 0 Z" fill="url(#qbleaf)"/><path d="M1 0 L 15.6 0" stroke="#2E5A18" stroke-opacity="0.55" stroke-width="0.6"/><animateTransform attributeName="transform" type="rotate" values="-2.6;2.6;-2.6" dur="7.0s" begin="1.1s" repeatCount="indefinite" calcMode="spline" keySplines="0.4 0 0.6 1;0.4 0 0.6 1" keyTimes="0;0.5;1"/></g></g><g transform="translate(831.2,41.8) rotate(95.5)"><g opacity="0.17"><path d="M0 0 Q 4.4 -4.6 10.5 0 Q 4.4 4.6 0 0 Z" fill="url(#qbleaf)"/><path d="M1 0 L 9.7 0" stroke="#2E5A18" stroke-opacity="0.55" stroke-width="0.6"/><animateTransform attributeName="transform" type="rotate" values="-2.6;2.6;-2.6" dur="5.3999999999999995s" begin="1.1s" repeatCount="indefinite" calcMode="spline" keySplines="0.4 0 0.6 1;0.4 0 0.6 1" keyTimes="0;0.5;1"/></g></g><g transform="translate(815.4,79.1) rotate(36.9)"><g opacity="0.19"><path d="M0 0 Q 6.3 -6.6 15.0 0 Q 6.3 6.6 0 0 Z" fill="url(#qbleaf)"/><path d="M1 0 L 13.8 0" stroke="#2E5A18" stroke-opacity="0.55" stroke-width="0.6"/><animateTransform attributeName="transform" type="rotate" values="-2.6;2.6;-2.6" dur="4.6s" begin="1.6500000000000001s" repeatCount="indefinite" calcMode="spline" keySplines="0.4 0 0.6 1;0.4 0 0.6 1" keyTimes="0;0.5;1"/></g></g><g transform="translate(815.4,79.1) rotate(134.1)"><g opacity="0.17"><path d="M0 0 Q 3.9 -4.1 9.3 0 Q 3.9 4.1 0 0 Z" fill="url(#qbleaf)"/><path d="M1 0 L 8.6 0" stroke="#2E5A18" stroke-opacity="0.55" stroke-width="0.6"/><animateTransform attributeName="transform" type="rotate" values="-2.6;2.6;-2.6" dur="6.199999999999999s" begin="1.6500000000000001s" repeatCount="indefinite" calcMode="spline" keySplines="0.4 0 0.6 1;0.4 0 0.6 1" keyTimes="0;0.5;1"/></g></g><g transform="translate(816.5,128.0) rotate(144.3)"><g opacity="0.19"><path d="M0 0 Q 5.0 -5.3 12.0 0 Q 5.0 5.3 0 0 Z" fill="url(#qbleaf)"/><path d="M1 0 L 11.0 0" stroke="#2E5A18" stroke-opacity="0.55" stroke-width="0.6"/><animateTransform attributeName="transform" type="rotate" values="-2.6;2.6;-2.6" dur="5.3999999999999995s" begin="2.2s" repeatCount="indefinite" calcMode="spline" keySplines="0.4 0 0.6 1;0.4 0 0.6 1" keyTimes="0;0.5;1"/></g></g><g transform="translate(816.5,128.0) rotate(47.1)"><g opacity="0.17"><path d="M0 0 Q 3.1 -3.3 7.4 0 Q 3.1 3.3 0 0 Z" fill="url(#qbleaf)"/><path d="M1 0 L 6.8 0" stroke="#2E5A18" stroke-opacity="0.55" stroke-width="0.6"/><animateTransform attributeName="transform" type="rotate" values="-2.6;2.6;-2.6" dur="7.0s" begin="2.2s" repeatCount="indefinite" calcMode="spline" keySplines="0.4 0 0.6 1;0.4 0 0.6 1" keyTimes="0;0.5;1"/></g></g><g transform="translate(821.5,179.9) rotate(26.1)"><g opacity="0.19"><path d="M0 0 Q 4.2 -4.4 10.0 0 Q 4.2 4.4 0 0 Z" fill="url(#qbleaf)"/><path d="M1 0 L 9.2 0" stroke="#2E5A18" stroke-opacity="0.55" stroke-width="0.6"/><animateTransform attributeName="transform" type="rotate" values="-2.6;2.6;-2.6" dur="6.199999999999999s" begin="0.0s" repeatCount="indefinite" calcMode="spline" keySplines="0.4 0 0.6 1;0.4 0 0.6 1" keyTimes="0;0.5;1"/></g></g><g transform="translate(821.5,179.9) rotate(123.3)"><g opacity="0.17"><path d="M0 0 Q 2.6 -2.7 6.2 0 Q 2.6 2.7 0 0 Z" fill="url(#qbleaf)"/><path d="M1 0 L 5.7 0" stroke="#2E5A18" stroke-opacity="0.55" stroke-width="0.6"/><animateTransform attributeName="transform" type="rotate" values="-2.6;2.6;-2.6" dur="4.6s" begin="0.0s" repeatCount="indefinite" calcMode="spline" keySplines="0.4 0 0.6 1;0.4 0 0.6 1" keyTimes="0;0.5;1"/></g></g><g transform="translate(821.1,238.4) rotate(155.6)"><g opacity="0.19"><path d="M0 0 Q 3.8 -4.0 9.0 0 Q 3.8 4.0 0 0 Z" fill="url(#qbleaf)"/><path d="M1 0 L 8.3 0" stroke="#2E5A18" stroke-opacity="0.55" stroke-width="0.6"/><animateTransform attributeName="transform" type="rotate" values="-2.6;2.6;-2.6" dur="7.0s" begin="0.55s" repeatCount="indefinite" calcMode="spline" keySplines="0.4 0 0.6 1;0.4 0 0.6 1" keyTimes="0;0.5;1"/></g></g><g transform="translate(821.1,238.4) rotate(58.4)"><g opacity="0.17"><path d="M0 0 Q 2.3 -2.5 5.6 0 Q 2.3 2.5 0 0 Z" fill="url(#qbleaf)"/><path d="M1 0 L 5.1 0" stroke="#2E5A18" stroke-opacity="0.55" stroke-width="0.6"/><animateTransform attributeName="transform" type="rotate" values="-2.6;2.6;-2.6" dur="5.3999999999999995s" begin="0.55s" repeatCount="indefinite" calcMode="spline" keySplines="0.4 0 0.6 1;0.4 0 0.6 1" keyTimes="0;0.5;1"/></g></g><g transform="translate(812.0,286.0) rotate(106.4)"><path d="M0 0 c 3.5 -4.9 9.8 -3.5 9.8 2.1 c 0 4.9 -6.3 6.0 -7.4 1.1 c -0.8 -2.8 2.8 -3.5 3.9 -0.8" fill="none" stroke="#4E9E2E" stroke-opacity="0.26" stroke-width="1.3" stroke-linecap="round"/></g><path d="M-16.0 414.0 C 120.0 352.0 52.0 244.0 196.0 206.0" fill="none" stroke="#4E9E2E" stroke-opacity="0.17" stroke-width="2" stroke-linecap="round" pathLength="100" stroke-dasharray="100" stroke-dashoffset="0"><animate attributeName="stroke-dashoffset" values="100;0" dur="1.7s" begin="0.9s" fill="freeze" calcMode="spline" keySplines="0.22 1 0.36 1" keyTimes="0;1"/></path><g transform="translate(44.4,372.2) rotate(13.2)"><g opacity="0.19"><path d="M0 0 Q 7.1 -7.5 17.0 0 Q 7.1 7.5 0 0 Z" fill="url(#qbleaf)"/><path d="M1 0 L 15.6 0" stroke="#2E5A18" stroke-opacity="0.55" stroke-width="0.6"/><animateTransform attributeName="transform" type="rotate" values="-2.6;2.6;-2.6" dur="6.199999999999999s" begin="2.2s" repeatCount="indefinite" calcMode="spline" keySplines="0.4 0 0.6 1;0.4 0 0.6 1" keyTimes="0;0.5;1"/></g></g><g transform="translate(44.4,372.2) rotate(-84.0)"><g opacity="0.17"><path d="M0 0 Q 4.4 -4.6 10.5 0 Q 4.4 4.6 0 0 Z" fill="url(#qbleaf)"/><path d="M1 0 L 9.7 0" stroke="#2E5A18" stroke-opacity="0.55" stroke-width="0.6"/><animateTransform attributeName="transform" type="rotate" values="-2.6;2.6;-2.6" dur="4.6s" begin="2.2s" repeatCount="indefinite" calcMode="spline" keySplines="0.4 0 0.6 1;0.4 0 0.6 1" keyTimes="0;0.5;1"/></g></g><g transform="translate(73.5,329.8) rotate(-122.9)"><g opacity="0.19"><path d="M0 0 Q 6.3 -6.6 15.0 0 Q 6.3 6.6 0 0 Z" fill="url(#qbleaf)"/><path d="M1 0 L 13.8 0" stroke="#2E5A18" stroke-opacity="0.55" stroke-width="0.6"/><animateTransform attributeName="transform" type="rotate" values="-2.6;2.6;-2.6" dur="7.0s" begin="0.0s" repeatCount="indefinite" calcMode="spline" keySplines="0.4 0 0.6 1;0.4 0 0.6 1" keyTimes="0;0.5;1"/></g></g><g transform="translate(73.5,329.8) rotate(-25.7)"><g opacity="0.17"><path d="M0 0 Q 3.9 -4.1 9.3 0 Q 3.9 4.1 0 0 Z" fill="url(#qbleaf)"/><path d="M1 0 L 8.6 0" stroke="#2E5A18" stroke-opacity="0.55" stroke-width="0.6"/><animateTransform attributeName="transform" type="rotate" values="-2.6;2.6;-2.6" dur="5.3999999999999995s" begin="0.0s" repeatCount="indefinite" calcMode="spline" keySplines="0.4 0 0.6 1;0.4 0 0.6 1" keyTimes="0;0.5;1"/></g></g><g transform="translate(93.6,286.9) rotate(-3.8)"><g opacity="0.19"><path d="M0 0 Q 5.0 -5.3 12.0 0 Q 5.0 5.3 0 0 Z" fill="url(#qbleaf)"/><path d="M1 0 L 11.0 0" stroke="#2E5A18" stroke-opacity="0.55" stroke-width="0.6"/><animateTransform attributeName="transform" type="rotate" values="-2.6;2.6;-2.6" dur="4.6s" begin="0.55s" repeatCount="indefinite" calcMode="spline" keySplines="0.4 0 0.6 1;0.4 0 0.6 1" keyTimes="0;0.5;1"/></g></g><g transform="translate(93.6,286.9) rotate(-101.0)"><g opacity="0.17"><path d="M0 0 Q 3.1 -3.3 7.4 0 Q 3.1 3.3 0 0 Z" fill="url(#qbleaf)"/><path d="M1 0 L 6.8 0" stroke="#2E5A18" stroke-opacity="0.55" stroke-width="0.6"/><animateTransform attributeName="transform" type="rotate" values="-2.6;2.6;-2.6" dur="6.199999999999999s" begin="0.55s" repeatCount="indefinite" calcMode="spline" keySplines="0.4 0 0.6 1;0.4 0 0.6 1" keyTimes="0;0.5;1"/></g></g><g transform="translate(115.8,251.8) rotate(-109.6)"><g opacity="0.19"><path d="M0 0 Q 4.2 -4.4 10.0 0 Q 4.2 4.4 0 0 Z" fill="url(#qbleaf)"/><path d="M1 0 L 9.2 0" stroke="#2E5A18" stroke-opacity="0.55" stroke-width="0.6"/><animateTransform attributeName="transform" type="rotate" values="-2.6;2.6;-2.6" dur="5.3999999999999995s" begin="1.1s" repeatCount="indefinite" calcMode="spline" keySplines="0.4 0 0.6 1;0.4 0 0.6 1" keyTimes="0;0.5;1"/></g></g><g transform="translate(115.8,251.8) rotate(-12.4)"><g opacity="0.17"><path d="M0 0 Q 2.6 -2.7 6.2 0 Q 2.6 2.7 0 0 Z" fill="url(#qbleaf)"/><path d="M1 0 L 5.7 0" stroke="#2E5A18" stroke-opacity="0.55" stroke-width="0.6"/><animateTransform attributeName="transform" type="rotate" values="-2.6;2.6;-2.6" dur="7.0s" begin="1.1s" repeatCount="indefinite" calcMode="spline" keySplines="0.4 0 0.6 1;0.4 0 0.6 1" keyTimes="0;0.5;1"/></g></g><g transform="translate(152.6,222.5) rotate(31.8)"><g opacity="0.19"><path d="M0 0 Q 3.8 -4.0 9.0 0 Q 3.8 4.0 0 0 Z" fill="url(#qbleaf)"/><path d="M1 0 L 8.3 0" stroke="#2E5A18" stroke-opacity="0.55" stroke-width="0.6"/><animateTransform attributeName="transform" type="rotate" values="-2.6;2.6;-2.6" dur="6.199999999999999s" begin="1.6500000000000001s" repeatCount="indefinite" calcMode="spline" keySplines="0.4 0 0.6 1;0.4 0 0.6 1" keyTimes="0;0.5;1"/></g></g><g transform="translate(152.6,222.5) rotate(-65.4)"><g opacity="0.17"><path d="M0 0 Q 2.3 -2.5 5.6 0 Q 2.3 2.5 0 0 Z" fill="url(#qbleaf)"/><path d="M1 0 L 5.1 0" stroke="#2E5A18" stroke-opacity="0.55" stroke-width="0.6"/><animateTransform attributeName="transform" type="rotate" values="-2.6;2.6;-2.6" dur="4.6s" begin="1.6500000000000001s" repeatCount="indefinite" calcMode="spline" keySplines="0.4 0 0.6 1;0.4 0 0.6 1" keyTimes="0;0.5;1"/></g></g><g transform="translate(196.0,206.0) rotate(-14.8)"><path d="M0 0 c 3.5 -4.9 9.8 -3.5 9.8 2.1 c 0 4.9 -6.3 6.0 -7.4 1.1 c -0.8 -2.8 2.8 -3.5 3.9 -0.8" fill="none" stroke="#4E9E2E" stroke-opacity="0.26" stroke-width="1.3" stroke-linecap="round"/></g><path d="M392.0 416.0 C 556.0 384.0 704.0 416.0 846.0 352.0" fill="none" stroke="#4E9E2E" stroke-opacity="0.17" stroke-width="2" stroke-linecap="round" pathLength="100" stroke-dasharray="100" stroke-dashoffset="0"><animate attributeName="stroke-dashoffset" values="100;0" dur="1.7s" begin="1.2s" fill="freeze" calcMode="spline" keySplines="0.22 1 0.36 1" keyTimes="0;1"/></path><g transform="translate(488.6,403.2) rotate(55.4)"><g opacity="0.19"><path d="M0 0 Q 7.1 -7.5 17.0 0 Q 7.1 7.5 0 0 Z" fill="url(#qbleaf)"/><path d="M1 0 L 15.6 0" stroke="#2E5A18" stroke-opacity="0.55" stroke-width="0.6"/><animateTransform attributeName="transform" type="rotate" values="-2.6;2.6;-2.6" dur="5.3999999999999995s" begin="0.55s" repeatCount="indefinite" calcMode="spline" keySplines="0.4 0 0.6 1;0.4 0 0.6 1" keyTimes="0;0.5;1"/></g></g><g transform="translate(488.6,403.2) rotate(-41.8)"><g opacity="0.17"><path d="M0 0 Q 4.4 -4.6 10.5 0 Q 4.4 4.6 0 0 Z" fill="url(#qbleaf)"/><path d="M1 0 L 9.7 0" stroke="#2E5A18" stroke-opacity="0.55" stroke-width="0.6"/><animateTransform attributeName="transform" type="rotate" values="-2.6;2.6;-2.6" dur="7.0s" begin="0.55s" repeatCount="indefinite" calcMode="spline" keySplines="0.4 0 0.6 1;0.4 0 0.6 1" keyTimes="0;0.5;1"/></g></g><g transform="translate(572.6,398.5) rotate(-62.4)"><g opacity="0.19"><path d="M0 0 Q 6.3 -6.6 15.0 0 Q 6.3 6.6 0 0 Z" fill="url(#qbleaf)"/><path d="M1 0 L 13.8 0" stroke="#2E5A18" stroke-opacity="0.55" stroke-width="0.6"/><animateTransform attributeName="transform" type="rotate" values="-2.6;2.6;-2.6" dur="6.199999999999999s" begin="1.1s" repeatCount="indefinite" calcMode="spline" keySplines="0.4 0 0.6 1;0.4 0 0.6 1" keyTimes="0;0.5;1"/></g></g><g transform="translate(572.6,398.5) rotate(34.8)"><g opacity="0.17"><path d="M0 0 Q 3.9 -4.1 9.3 0 Q 3.9 4.1 0 0 Z" fill="url(#qbleaf)"/><path d="M1 0 L 8.6 0" stroke="#2E5A18" stroke-opacity="0.55" stroke-width="0.6"/><animateTransform attributeName="transform" type="rotate" values="-2.6;2.6;-2.6" dur="4.6s" begin="1.1s" repeatCount="indefinite" calcMode="spline" keySplines="0.4 0 0.6 1;0.4 0 0.6 1" keyTimes="0;0.5;1"/></g></g><g transform="translate(654.2,394.4) rotate(56.0)"><g opacity="0.19"><path d="M0 0 Q 5.0 -5.3 12.0 0 Q 5.0 5.3 0 0 Z" fill="url(#qbleaf)"/><path d="M1 0 L 11.0 0" stroke="#2E5A18" stroke-opacity="0.55" stroke-width="0.6"/><animateTransform attributeName="transform" type="rotate" values="-2.6;2.6;-2.6" dur="7.0s" begin="1.6500000000000001s" repeatCount="indefinite" calcMode="spline" keySplines="0.4 0 0.6 1;0.4 0 0.6 1" keyTimes="0;0.5;1"/></g></g><g transform="translate(654.2,394.4) rotate(-41.2)"><g opacity="0.17"><path d="M0 0 Q 3.1 -3.3 7.4 0 Q 3.1 3.3 0 0 Z" fill="url(#qbleaf)"/><path d="M1 0 L 6.8 0" stroke="#2E5A18" stroke-opacity="0.55" stroke-width="0.6"/><animateTransform attributeName="transform" type="rotate" values="-2.6;2.6;-2.6" dur="5.3999999999999995s" begin="1.6500000000000001s" repeatCount="indefinite" calcMode="spline" keySplines="0.4 0 0.6 1;0.4 0 0.6 1" keyTimes="0;0.5;1"/></g></g><g transform="translate(725.1,386.7) rotate(-68.9)"><g opacity="0.19"><path d="M0 0 Q 4.2 -4.4 10.0 0 Q 4.2 4.4 0 0 Z" fill="url(#qbleaf)"/><path d="M1 0 L 9.2 0" stroke="#2E5A18" stroke-opacity="0.55" stroke-width="0.6"/><animateTransform attributeName="transform" type="rotate" values="-2.6;2.6;-2.6" dur="4.6s" begin="2.2s" repeatCount="indefinite" calcMode="spline" keySplines="0.4 0 0.6 1;0.4 0 0.6 1" keyTimes="0;0.5;1"/></g></g><g transform="translate(725.1,386.7) rotate(28.3)"><g opacity="0.17"><path d="M0 0 Q 2.6 -2.7 6.2 0 Q 2.6 2.7 0 0 Z" fill="url(#qbleaf)"/><path d="M1 0 L 5.7 0" stroke="#2E5A18" stroke-opacity="0.55" stroke-width="0.6"/><animateTransform attributeName="transform" type="rotate" values="-2.6;2.6;-2.6" dur="6.199999999999999s" begin="2.2s" repeatCount="indefinite" calcMode="spline" keySplines="0.4 0 0.6 1;0.4 0 0.6 1" keyTimes="0;0.5;1"/></g></g><g transform="translate(794.6,371.2) rotate(43.2)"><g opacity="0.19"><path d="M0 0 Q 3.8 -4.0 9.0 0 Q 3.8 4.0 0 0 Z" fill="url(#qbleaf)"/><path d="M1 0 L 8.3 0" stroke="#2E5A18" stroke-opacity="0.55" stroke-width="0.6"/><animateTransform attributeName="transform" type="rotate" values="-2.6;2.6;-2.6" dur="5.3999999999999995s" begin="0.0s" repeatCount="indefinite" calcMode="spline" keySplines="0.4 0 0.6 1;0.4 0 0.6 1" keyTimes="0;0.5;1"/></g></g><g transform="translate(794.6,371.2) rotate(-54.0)"><g opacity="0.17"><path d="M0 0 Q 2.3 -2.5 5.6 0 Q 2.3 2.5 0 0 Z" fill="url(#qbleaf)"/><path d="M1 0 L 5.1 0" stroke="#2E5A18" stroke-opacity="0.55" stroke-width="0.6"/><animateTransform attributeName="transform" type="rotate" values="-2.6;2.6;-2.6" dur="7.0s" begin="0.0s" repeatCount="indefinite" calcMode="spline" keySplines="0.4 0 0.6 1;0.4 0 0.6 1" keyTimes="0;0.5;1"/></g></g><g transform="translate(846.0,352.0) rotate(-24.3)"><path d="M0 0 c 3.5 -4.9 9.8 -3.5 9.8 2.1 c 0 4.9 -6.3 6.0 -7.4 1.1 c -0.8 -2.8 2.8 -3.5 3.9 -0.8" fill="none" stroke="#4E9E2E" stroke-opacity="0.26" stroke-width="1.3" stroke-linecap="round"/></g><path d="M602.0 -16.0 C 602.0 42.0 556.0 92.0 602.0 158.0" fill="none" stroke="#4E9E2E" stroke-opacity="0.17" stroke-width="2" stroke-linecap="round" pathLength="100" stroke-dasharray="100" stroke-dashoffset="0"><animate attributeName="stroke-dashoffset" values="100;0" dur="1.7s" begin="1.6s" fill="freeze" calcMode="spline" keySplines="0.22 1 0.36 1" keyTimes="0;1"/></path><g transform="translate(597.6,18.0) rotate(163.0)"><g opacity="0.19"><path d="M0 0 Q 7.1 -7.5 17.0 0 Q 7.1 7.5 0 0 Z" fill="url(#qbleaf)"/><path d="M1 0 L 15.6 0" stroke="#2E5A18" stroke-opacity="0.55" stroke-width="0.6"/><animateTransform attributeName="transform" type="rotate" values="-2.6;2.6;-2.6" dur="4.6s" begin="1.6500000000000001s" repeatCount="indefinite" calcMode="spline" keySplines="0.4 0 0.6 1;0.4 0 0.6 1" keyTimes="0;0.5;1"/></g></g><g transform="translate(597.6,18.0) rotate(65.8)"><g opacity="0.17"><path d="M0 0 Q 4.4 -4.6 10.5 0 Q 4.4 4.6 0 0 Z" fill="url(#qbleaf)"/><path d="M1 0 L 9.7 0" stroke="#2E5A18" stroke-opacity="0.55" stroke-width="0.6"/><animateTransform attributeName="transform" type="rotate" values="-2.6;2.6;-2.6" dur="6.199999999999999s" begin="1.6500000000000001s" repeatCount="indefinite" calcMode="spline" keySplines="0.4 0 0.6 1;0.4 0 0.6 1" keyTimes="0;0.5;1"/></g></g><g transform="translate(589.6,48.0) rotate(45.2)"><g opacity="0.19"><path d="M0 0 Q 6.3 -6.6 15.0 0 Q 6.3 6.6 0 0 Z" fill="url(#qbleaf)"/><path d="M1 0 L 13.8 0" stroke="#2E5A18" stroke-opacity="0.55" stroke-width="0.6"/><animateTransform attributeName="transform" type="rotate" values="-2.6;2.6;-2.6" dur="5.3999999999999995s" begin="2.2s" repeatCount="indefinite" calcMode="spline" keySplines="0.4 0 0.6 1;0.4 0 0.6 1" keyTimes="0;0.5;1"/></g></g><g transform="translate(589.6,48.0) rotate(142.4)"><g opacity="0.17"><path d="M0 0 Q 3.9 -4.1 9.3 0 Q 3.9 4.1 0 0 Z" fill="url(#qbleaf)"/><path d="M1 0 L 8.6 0" stroke="#2E5A18" stroke-opacity="0.55" stroke-width="0.6"/><animateTransform attributeName="transform" type="rotate" values="-2.6;2.6;-2.6" dur="7.0s" begin="2.2s" repeatCount="indefinite" calcMode="spline" keySplines="0.4 0 0.6 1;0.4 0 0.6 1" keyTimes="0;0.5;1"/></g></g><g transform="translate(583.0,78.1) rotate(158.3)"><g opacity="0.19"><path d="M0 0 Q 5.0 -5.3 12.0 0 Q 5.0 5.3 0 0 Z" fill="url(#qbleaf)"/><path d="M1 0 L 11.0 0" stroke="#2E5A18" stroke-opacity="0.55" stroke-width="0.6"/><animateTransform attributeName="transform" type="rotate" values="-2.6;2.6;-2.6" dur="6.199999999999999s" begin="0.0s" repeatCount="indefinite" calcMode="spline" keySplines="0.4 0 0.6 1;0.4 0 0.6 1" keyTimes="0;0.5;1"/></g></g><g transform="translate(583.0,78.1) rotate(61.1)"><g opacity="0.17"><path d="M0 0 Q 3.1 -3.3 7.4 0 Q 3.1 3.3 0 0 Z" fill="url(#qbleaf)"/><path d="M1 0 L 6.8 0" stroke="#2E5A18" stroke-opacity="0.55" stroke-width="0.6"/><animateTransform attributeName="transform" type="rotate" values="-2.6;2.6;-2.6" dur="4.6s" begin="0.0s" repeatCount="indefinite" calcMode="spline" keySplines="0.4 0 0.6 1;0.4 0 0.6 1" keyTimes="0;0.5;1"/></g></g><g transform="translate(582.0,105.8) rotate(24.9)"><g opacity="0.19"><path d="M0 0 Q 4.2 -4.4 10.0 0 Q 4.2 4.4 0 0 Z" fill="url(#qbleaf)"/><path d="M1 0 L 9.2 0" stroke="#2E5A18" stroke-opacity="0.55" stroke-width="0.6"/><animateTransform attributeName="transform" type="rotate" values="-2.6;2.6;-2.6" dur="7.0s" begin="0.55s" repeatCount="indefinite" calcMode="spline" keySplines="0.4 0 0.6 1;0.4 0 0.6 1" keyTimes="0;0.5;1"/></g></g><g transform="translate(582.0,105.8) rotate(122.1)"><g opacity="0.17"><path d="M0 0 Q 2.6 -2.7 6.2 0 Q 2.6 2.7 0 0 Z" fill="url(#qbleaf)"/><path d="M1 0 L 5.7 0" stroke="#2E5A18" stroke-opacity="0.55" stroke-width="0.6"/><animateTransform attributeName="transform" type="rotate" values="-2.6;2.6;-2.6" dur="5.3999999999999995s" begin="0.55s" repeatCount="indefinite" calcMode="spline" keySplines="0.4 0 0.6 1;0.4 0 0.6 1" keyTimes="0;0.5;1"/></g></g><g transform="translate(589.2,134.9) rotate(127.5)"><g opacity="0.19"><path d="M0 0 Q 3.8 -4.0 9.0 0 Q 3.8 4.0 0 0 Z" fill="url(#qbleaf)"/><path d="M1 0 L 8.3 0" stroke="#2E5A18" stroke-opacity="0.55" stroke-width="0.6"/><animateTransform attributeName="transform" type="rotate" values="-2.6;2.6;-2.6" dur="4.6s" begin="1.1s" repeatCount="indefinite" calcMode="spline" keySplines="0.4 0 0.6 1;0.4 0 0.6 1" keyTimes="0;0.5;1"/></g></g><g transform="translate(589.2,134.9) rotate(30.3)"><g opacity="0.17"><path d="M0 0 Q 2.3 -2.5 5.6 0 Q 2.3 2.5 0 0 Z" fill="url(#qbleaf)"/><path d="M1 0 L 5.1 0" stroke="#2E5A18" stroke-opacity="0.55" stroke-width="0.6"/><animateTransform attributeName="transform" type="rotate" values="-2.6;2.6;-2.6" dur="6.199999999999999s" begin="1.1s" repeatCount="indefinite" calcMode="spline" keySplines="0.4 0 0.6 1;0.4 0 0.6 1" keyTimes="0;0.5;1"/></g></g><g transform="translate(602.0,158.0) rotate(55.1)"><path d="M0 0 c 3.5 -4.9 9.8 -3.5 9.8 2.1 c 0 4.9 -6.3 6.0 -7.4 1.1 c -0.8 -2.8 2.8 -3.5 3.9 -0.8" fill="none" stroke="#4E9E2E" stroke-opacity="0.26" stroke-width="1.3" stroke-linecap="round"/></g><circle cx="120" cy="200" r="1.6" fill="#A9E86B" opacity="0"><animate attributeName="cy" values="412;-12" dur="11s" begin="0.0s" repeatCount="indefinite"/><animate attributeName="opacity" values="0;0.42;0.42;0" keyTimes="0;0.16;0.7;1" dur="11s" begin="0.0s" repeatCount="indefinite"/><animate attributeName="cx" values="120;128;114;120" dur="11s" begin="0.0s" repeatCount="indefinite"/></circle><circle cx="250" cy="200" r="1.2" fill="#A9E86B" opacity="0"><animate attributeName="cy" values="412;-12" dur="13s" begin="1.4s" repeatCount="indefinite"/><animate attributeName="opacity" values="0;0.42;0.42;0" keyTimes="0;0.16;0.7;1" dur="13s" begin="1.4s" repeatCount="indefinite"/><animate attributeName="cx" values="250;258;244;250" dur="13s" begin="1.4s" repeatCount="indefinite"/></circle><circle cx="360" cy="200" r="1.4" fill="#A9E86B" opacity="0"><animate attributeName="cy" values="412;-12" dur="10s" begin="0.7s" repeatCount="indefinite"/><animate attributeName="opacity" values="0;0.42;0.42;0" keyTimes="0;0.16;0.7;1" dur="10s" begin="0.7s" repeatCount="indefinite"/><animate attributeName="cx" values="360;368;354;360" dur="10s" begin="0.7s" repeatCount="indefinite"/></circle><circle cx="520" cy="200" r="1.7" fill="#A9E86B" opacity="0"><animate attributeName="cy" values="412;-12" dur="14s" begin="3.1s" repeatCount="indefinite"/><animate attributeName="opacity" values="0;0.42;0.42;0" keyTimes="0;0.16;0.7;1" dur="14s" begin="3.1s" repeatCount="indefinite"/><animate attributeName="cx" values="520;528;514;520" dur="14s" begin="3.1s" repeatCount="indefinite"/></circle><circle cx="610" cy="200" r="1.3" fill="#A9E86B" opacity="0"><animate attributeName="cy" values="412;-12" dur="12s" begin="2.2s" repeatCount="indefinite"/><animate attributeName="opacity" values="0;0.42;0.42;0" keyTimes="0;0.16;0.7;1" dur="12s" begin="2.2s" repeatCount="indefinite"/><animate attributeName="cx" values="610;618;604;610" dur="12s" begin="2.2s" repeatCount="indefinite"/></circle><circle cx="700" cy="200" r="1.1" fill="#A9E86B" opacity="0"><animate attributeName="cy" values="412;-12" dur="15s" begin="0.4s" repeatCount="indefinite"/><animate attributeName="opacity" values="0;0.42;0.42;0" keyTimes="0;0.16;0.7;1" dur="15s" begin="0.4s" repeatCount="indefinite"/><animate attributeName="cx" values="700;708;694;700" dur="15s" begin="0.4s" repeatCount="indefinite"/></circle><circle cx="780" cy="200" r="1.5" fill="#A9E86B" opacity="0"><animate attributeName="cy" values="412;-12" dur="12s" begin="4.0s" repeatCount="indefinite"/><animate attributeName="opacity" values="0;0.42;0.42;0" keyTimes="0;0.16;0.7;1" dur="12s" begin="4.0s" repeatCount="indefinite"/><animate attributeName="cx" values="780;788;774;780" dur="12s" begin="4.0s" repeatCount="indefinite"/></circle><circle cx="170" cy="200" r="1.2" fill="#A9E86B" opacity="0"><animate attributeName="cy" values="412;-12" dur="12s" begin="5.2s" repeatCount="indefinite"/><animate attributeName="opacity" values="0;0.42;0.42;0" keyTimes="0;0.16;0.7;1" dur="12s" begin="5.2s" repeatCount="indefinite"/><animate attributeName="cx" values="170;178;164;170" dur="12s" begin="5.2s" repeatCount="indefinite"/></circle><circle cx="450" cy="200" r="1.4" fill="#A9E86B" opacity="0"><animate attributeName="cy" values="412;-12" dur="13s" begin="2.8s" repeatCount="indefinite"/><animate attributeName="opacity" values="0;0.42;0.42;0" keyTimes="0;0.16;0.7;1" dur="13s" begin="2.8s" repeatCount="indefinite"/><animate attributeName="cx" values="450;458;444;450" dur="13s" begin="2.8s" repeatCount="indefinite"/></circle><circle cx="830" cy="200" r="1.3" fill="#A9E86B" opacity="0"><animate attributeName="cy" values="412;-12" dur="11s" begin="3.6s" repeatCount="indefinite"/><animate attributeName="opacity" values="0;0.42;0.42;0" keyTimes="0;0.16;0.7;1" dur="11s" begin="3.6s" repeatCount="indefinite"/><animate attributeName="cx" values="830;838;824;830" dur="11s" begin="3.6s" repeatCount="indefinite"/></circle>
  <!-- diagonal glint（素早く通過 → 静止） -->
  <rect x="-300" y="-40" width="240" height="480" fill="url(#qglint)" transform="skewX(-18)">
    <animate attributeName="x" values="-300;1160;1160" keyTimes="0;0.11;1" dur="10s" begin="3s" repeatCount="indefinite"/>
  </rect>
</g>

<!-- header -->
<circle cx="38" cy="46" r="5" fill="#55C500">
  <animate attributeName="opacity" values="1;0.35;1" dur="2.4s" repeatCount="indefinite"/>
  <animate attributeName="r" values="5;6.4;5" dur="2.4s" repeatCount="indefinite"/>
</circle>
<text x="54" y="52" font-family="'Segoe UI',-apple-system,BlinkMacSystemFont,'Hiragino Sans','Yu Gothic','Noto Sans JP',Helvetica,Arial,sans-serif" font-size="22" font-weight="700" fill="#C2F0C2">Qiita</text>
<text x="120" y="52" font-family="'Hiragino Sans','Hiragino Kaku Gothic ProN','Yu Gothic','Noto Sans JP','Meiryo',sans-serif" font-size="14" letter-spacing="2" fill="#71D083">活動記録</text>
<text x="822" y="51" text-anchor="end" font-family="'Hiragino Sans','Hiragino Kaku Gothic ProN','Yu Gothic','Noto Sans JP','Meiryo',sans-serif" font-size="13" fill="#71D083">@miruky ・ 毎日更新</text>
<line x1="40" y1="72" x2="820" y2="72" stroke="#55C500" stroke-opacity="0.16" stroke-width="1"/>

<!-- ===== HERO: VIEWS gauge ===== -->
<g filter="url(#drop)"><rect x="28" y="88" width="372" height="284" rx="18" fill="url(#heroGlass)"/><rect x="28" y="88" width="372" height="284" rx="18" fill="none" stroke="url(#rim)" stroke-width="1.2"/><rect x="29" y="89" width="370" height="114" rx="16" fill="url(#sheen)"/></g>
<g>
  <path d="M140.46 281.54 A104 104 0 1 1 287.54 281.54" fill="none" stroke="#55C500" stroke-opacity="0.15" stroke-width="14" stroke-linecap="round"/>
  <path d="M140.46 281.54 A104 104 0 1 1 287.54 281.54" fill="none" stroke="url(#gaugeVal)" stroke-width="14" stroke-linecap="round" pathLength="100"
        stroke-dasharray="91.7 100" filter="url(#glow)" opacity="0.55"/>
  <path d="M140.46 281.54 A104 104 0 1 1 287.54 281.54" fill="none" stroke="url(#gaugeVal)" stroke-width="14" stroke-linecap="round" pathLength="100"
        stroke-dasharray="91.7 100" stroke-dashoffset="0">
    <animate attributeName="stroke-dashoffset" values="91.7;0" dur="1.3s" begin="0.2s" fill="freeze" calcMode="spline" keySplines="0.16 1 0.3 1" keyTimes="0;1"/>
  </path>
  <g transform="translate(206,138)" fill="none" stroke="#71D083" stroke-width="1.6" stroke-linecap="round" stroke-linejoin="round"><path d="M0 6 C3 1 11 1 14 6 C11 11 3 11 0 6 Z"/><circle cx="7" cy="6" r="2.2" fill="#71D083" stroke="none"/></g>
  <text x="214" y="178" text-anchor="middle" font-family="ui-monospace,'SF Mono','JetBrains Mono',Menlo,Consolas,monospace" font-size="12" letter-spacing="4" fill="#8FBF8A">VIEWS</text>
  <text x="214" y="220" text-anchor="middle" font-family="'Segoe UI',-apple-system,BlinkMacSystemFont,'Hiragino Sans','Yu Gothic','Noto Sans JP',Helvetica,Arial,sans-serif" font-size="40" font-weight="800" fill="url(#heroNum)">1,834,018</text>
  <text x="214" y="248" text-anchor="middle" font-family="'Hiragino Sans','Hiragino Kaku Gothic ProN','Yu Gothic','Noto Sans JP','Meiryo',sans-serif" font-size="14" fill="#8FBF8A">閲覧数</text>
  <text x="214" y="304" text-anchor="middle" font-family="'Hiragino Sans','Hiragino Kaku Gothic ProN','Yu Gothic','Noto Sans JP','Meiryo',sans-serif" font-size="11" fill="#71D083">目標 2.0M まで 92%</text>
</g>

<!-- ===== support tiles ===== -->
<g filter="url(#drop)"><rect x="416" y="88" width="200" height="134" rx="16" fill="url(#tileGlass)"/><rect x="416" y="88" width="200" height="134" rx="16" fill="none" stroke="url(#rim)" stroke-width="1.2"/><rect x="417" y="89" width="198" height="54" rx="14" fill="url(#sheen)"/></g>
<g transform="translate(432,106)" fill="none" stroke="#71D083" stroke-width="1.6" stroke-linecap="round" stroke-linejoin="round"><path d="M7 13 V6"/><path d="M7 7 C4 7 2 5 2 2 C5 2 7 4 7 7Z" fill="#71D083" fill-opacity="0.18"/><path d="M7 8 C10 8 12 6 12 3 C9 3 7 5 7 8Z" fill="#71D083" fill-opacity="0.18"/></g>
<g transform="translate(478,104)"><rect x="0" y="0" width="122" height="20" rx="10" fill="#55C500" fill-opacity="0.14"/><path d="M8 13 l4 -6 l4 6 Z" fill="#7FE04A"/><text x="22" y="14" font-family="ui-monospace,'SF Mono','JetBrains Mono',Menlo,Consolas,monospace" font-size="11" font-weight="700" fill="#7FE04A">+1,344</text><text x="71" y="14" font-family="'Hiragino Sans','Hiragino Kaku Gothic ProN','Yu Gothic','Noto Sans JP','Meiryo',sans-serif" font-size="9.5" fill="#71D083">直近30日</text></g>
<text x="432" y="180" font-family="'Segoe UI',-apple-system,BlinkMacSystemFont,'Hiragino Sans','Yu Gothic','Noto Sans JP',Helvetica,Arial,sans-serif" font-size="30" font-weight="800" fill="#C2F0C2">6,869</text>
<text x="432" y="204" font-family="ui-monospace,'SF Mono','JetBrains Mono',Menlo,Consolas,monospace" font-size="10" letter-spacing="1.2" fill="#8FBF8A">CONTRIBUTION <tspan font-family="'Hiragino Sans','Hiragino Kaku Gothic ProN','Yu Gothic','Noto Sans JP','Meiryo',sans-serif" letter-spacing="0">・ 累計</tspan></text>

<g filter="url(#drop)"><rect x="632" y="88" width="200" height="134" rx="16" fill="url(#tileGlass)"/><rect x="632" y="88" width="200" height="134" rx="16" fill="none" stroke="url(#rim)" stroke-width="1.2"/><rect x="633" y="89" width="198" height="54" rx="14" fill="url(#sheen)"/></g>
<g transform="translate(648,106)" fill="none" stroke="#71D083" stroke-width="1.6" stroke-linecap="round" stroke-linejoin="round"><path d="M2 12 L2 9 L9 2 L12 5 L5 12 Z"/><path d="M8 3 L11 6"/></g>
<circle cx="732" cy="110" r="2.1" fill="#7FE04A" opacity="0.25"/><circle cx="745" cy="110" r="2.1" fill="#7FE04A" opacity="0.31"/><circle cx="758" cy="110" r="2.1" fill="#7FE04A" opacity="0.37"/><circle cx="771" cy="110" r="2.1" fill="#7FE04A" opacity="0.43"/><circle cx="784" cy="110" r="2.1" fill="#7FE04A" opacity="0.49"/><circle cx="797" cy="110" r="2.1" fill="#7FE04A" opacity="0.55"/><circle cx="732" cy="122" r="2.1" fill="#7FE04A" opacity="0.61"/><circle cx="745" cy="122" r="2.1" fill="#7FE04A" opacity="0.67"/><circle cx="758" cy="122" r="2.1" fill="#7FE04A" opacity="0.73"/><circle cx="771" cy="122" r="2.1" fill="#7FE04A" opacity="0.79"/><circle cx="784" cy="122" r="2.1" fill="#7FE04A" opacity="0.85"/><circle cx="797" cy="122" r="2.1" fill="#7FE04A" opacity="0.91"/>
<text x="648" y="180" font-family="'Segoe UI',-apple-system,BlinkMacSystemFont,'Hiragino Sans','Yu Gothic','Noto Sans JP',Helvetica,Arial,sans-serif" font-size="30" font-weight="800" fill="#C2F0C2">80</text>
<text x="648" y="204" font-family="ui-monospace,'SF Mono','JetBrains Mono',Menlo,Consolas,monospace" font-size="10" letter-spacing="1.5" fill="#8FBF8A">ARTICLES <tspan font-family="'Hiragino Sans','Hiragino Kaku Gothic ProN','Yu Gothic','Noto Sans JP','Meiryo',sans-serif" letter-spacing="0">・ 記事</tspan></text>

<g filter="url(#drop)"><rect x="416" y="238" width="200" height="134" rx="16" fill="url(#tileGlass)"/><rect x="416" y="238" width="200" height="134" rx="16" fill="none" stroke="url(#rim)" stroke-width="1.2"/><rect x="417" y="239" width="198" height="54" rx="14" fill="url(#sheen)"/></g>
<g transform="translate(432,256)" fill="none" stroke="#71D083" stroke-width="1.6" stroke-linecap="round" stroke-linejoin="round"><path d="M7 12 C1 8 1 3 4 3 C6 3 7 5 7 5 C7 5 8 3 10 3 C13 3 13 8 7 12 Z"/></g>
<rect x="528" y="256" width="10" height="10" rx="2.5" fill="#7FE04A" fill-opacity="1" stroke="#55C500" stroke-opacity="0.25" stroke-width="0.8"/><rect x="541" y="256" width="10" height="10" rx="2.5" fill="#7FE04A" fill-opacity="1" stroke="#55C500" stroke-opacity="0.25" stroke-width="0.8"/><rect x="554" y="256" width="10" height="10" rx="2.5" fill="#7FE04A" fill-opacity="1" stroke="#55C500" stroke-opacity="0.25" stroke-width="0.8"/><rect x="567" y="256" width="10" height="10" rx="2.5" fill="#7FE04A" fill-opacity="1" stroke="#55C500" stroke-opacity="0.25" stroke-width="0.8"/><rect x="580" y="256" width="10" height="10" rx="2.5" fill="#7FE04A" fill-opacity="1" stroke="#55C500" stroke-opacity="0.25" stroke-width="0.8"/><rect x="528" y="269" width="10" height="10" rx="2.5" fill="#7FE04A" fill-opacity="1" stroke="#55C500" stroke-opacity="0.25" stroke-width="0.8"/><rect x="541" y="269" width="10" height="10" rx="2.5" fill="#7FE04A" fill-opacity="1" stroke="#55C500" stroke-opacity="0.25" stroke-width="0.8"/><rect x="554" y="269" width="10" height="10" rx="2.5" fill="#7FE04A" fill-opacity="1" stroke="#55C500" stroke-opacity="0.25" stroke-width="0.8"/><rect x="567" y="269" width="10" height="10" rx="2.5" fill="#7FE04A" fill-opacity="1" stroke="#55C500" stroke-opacity="0.25" stroke-width="0.8"/><rect x="580" y="269" width="10" height="10" rx="2.5" fill="none" fill-opacity="0.14" stroke="#55C500" stroke-opacity="0.25" stroke-width="0.8"/>
<text x="432" y="330" font-family="'Segoe UI',-apple-system,BlinkMacSystemFont,'Hiragino Sans','Yu Gothic','Noto Sans JP',Helvetica,Arial,sans-serif" font-size="30" font-weight="800" fill="#C2F0C2">4,506</text>
<text x="432" y="354" font-family="ui-monospace,'SF Mono','JetBrains Mono',Menlo,Consolas,monospace" font-size="10" letter-spacing="1.5" fill="#8FBF8A">LIKES <tspan font-family="'Hiragino Sans','Hiragino Kaku Gothic ProN','Yu Gothic','Noto Sans JP','Meiryo',sans-serif" letter-spacing="0">・ いいね</tspan></text>

<g filter="url(#drop)"><rect x="632" y="238" width="200" height="134" rx="16" fill="url(#tileGlass)"/><rect x="632" y="238" width="200" height="134" rx="16" fill="none" stroke="url(#rim)" stroke-width="1.2"/><rect x="633" y="239" width="198" height="54" rx="14" fill="url(#sheen)"/></g>
<g transform="translate(648,256)" fill="none" stroke="#71D083" stroke-width="1.6" stroke-linecap="round" stroke-linejoin="round"><path d="M3 2 H11 V13 L7 10 L3 13 Z"/></g>
<rect x="700" y="264" width="116" height="8" rx="4" fill="#55C500" fill-opacity="0.14"/><rect x="700" y="264" width="106" height="8" rx="4" fill="url(#barg)"><animate attributeName="width" values="0;106" dur="1.1s" begin="0.5s" fill="freeze" calcMode="spline" keySplines="0.16 1 0.3 1" keyTimes="0;1"/></rect>
<text x="648" y="330" font-family="'Segoe UI',-apple-system,BlinkMacSystemFont,'Hiragino Sans','Yu Gothic','Noto Sans JP',Helvetica,Arial,sans-serif" font-size="30" font-weight="800" fill="#C2F0C2">4,566</text>
<text x="648" y="354" font-family="ui-monospace,'SF Mono','JetBrains Mono',Menlo,Consolas,monospace" font-size="10" letter-spacing="1.5" fill="#8FBF8A">STOCKS <tspan font-family="'Hiragino Sans','Hiragino Kaku Gothic ProN','Yu Gothic','Noto Sans JP','Meiryo',sans-serif" letter-spacing="0">・ ストック</tspan></text>

<!-- corner ticks + grain + rim -->
<path d="M20 40 L20 20 L40 20" fill="none" stroke="#55C500" stroke-opacity="0.5" stroke-width="1.5"/>
<path d="M840 360 L840 380 L820 380" fill="none" stroke="#55C500" stroke-opacity="0.5" stroke-width="1.5"/>
<rect x="2" y="2" width="856" height="396" rx="22" fill="none" stroke="url(#rim)" stroke-width="1.5"/>
<rect x="2" y="2" width="856" height="396" rx="22" fill="#000" opacity="0.5" filter="url(#grain)" clip-path="url(#round)"/>
</svg>